<svg xmlns="http://www.w3.org/2000/svg" width="1120" height="560" viewBox="0 0 1120 560" role="img" aria-labelledby="title desc">
  <title id="title">Prompt to interface workflow</title>
  <desc id="desc">A workflow from staff need through prompt, prototype, test, and documentation.</desc>
  <rect width="1120" height="560" rx="24" fill="#161316"/>
  <text x="64" y="82" font-family="Arial, sans-serif" font-size="34" font-weight="700" fill="#fff8ed">From prompt to working interface</text>
  <text x="64" y="122" font-family="Arial, sans-serif" font-size="18" fill="#f0d8a5">The prompt starts the work. The reviewed screen is the deliverable.</text>
  <g font-family="Arial, sans-serif">
    <rect x="64" y="178" width="178" height="210" rx="12" fill="#fff8ed"/>
    <text x="88" y="224" font-size="22" font-weight="700" fill="#521321">Staff Need</text>
    <text x="88" y="262" font-size="15" fill="#3d3033">Role</text>
    <text x="88" y="292" font-size="15" fill="#3d3033">Task</text>
    <text x="88" y="322" font-size="15" fill="#3d3033">Pain point</text>
    <rect x="280" y="178" width="178" height="210" rx="12" fill="#f0e1bf"/>
    <text x="304" y="224" font-size="22" font-weight="700" fill="#521321">Prompt</text>
    <text x="304" y="262" font-size="15" fill="#3d3033">Audience</text>
    <text x="304" y="292" font-size="15" fill="#3d3033">Job</text>
    <text x="304" y="322" font-size="15" fill="#3d3033">Constraints</text>
    <rect x="496" y="178" width="178" height="210" rx="12" fill="#d6a84f"/>
    <text x="520" y="224" font-size="22" font-weight="700" fill="#2a2023">Prototype</text>
    <text x="520" y="262" font-size="15" fill="#3d3033">Layout</text>
    <text x="520" y="292" font-size="15" fill="#3d3033">States</text>
    <text x="520" y="322" font-size="15" fill="#3d3033">Copy</text>
    <rect x="712" y="178" width="178" height="210" rx="12" fill="#fff8ed"/>
    <text x="736" y="224" font-size="22" font-weight="700" fill="#521321">Test</text>
    <text x="736" y="262" font-size="15" fill="#3d3033">Mobile</text>
    <text x="736" y="292" font-size="15" fill="#3d3033">Build</text>
    <text x="736" y="322" font-size="15" fill="#3d3033">Workflow</text>
    <rect x="928" y="178" width="128" height="210" rx="12" fill="#7a2633"/>
    <text x="992" y="224" text-anchor="middle" font-size="22" font-weight="700" fill="#fff8ed">Docs</text>
    <text x="992" y="262" text-anchor="middle" font-size="15" fill="#fff2db">How to</text>
    <text x="992" y="292" text-anchor="middle" font-size="15" fill="#fff2db">Owner</text>
    <text x="992" y="322" text-anchor="middle" font-size="15" fill="#fff2db">Support</text>
  </g>
  <g fill="none" stroke="#f0d8a5" stroke-width="5" stroke-linecap="round">
    <path d="M246 282h30"/>
    <path d="M462 282h30"/>
    <path d="M678 282h30"/>
    <path d="M894 282h30"/>
  </g>
  <g fill="#f0d8a5">
    <path d="M274 270l24 12-24 12z"/>
    <path d="M490 270l24 12-24 12z"/>
    <path d="M706 270l24 12-24 12z"/>
    <path d="M922 270l24 12-24 12z"/>
  </g>
  <rect x="64" y="438" width="992" height="54" rx="10" fill="#2a2023" stroke="#7a2633"/>
  <text x="560" y="473" text-anchor="middle" font-family="Arial, sans-serif" font-size="18" fill="#fff8ed">If staff cannot use it without reading code, the workflow is not finished.</text>
</svg>
